<svg height="940.119" viewBox="0 0 939.043 940.119" width="939.043" xmlns="http://www.w3.org/2000/svg"><path d="m774.245 741.487c-3.85 6.664-20.211 29.811-17.179 45.979 2.242 11.96 39.188 65.838 48.478 80.019 6.838 10.439 35.901 12.949 42.974-8.777 7.074-21.726 24.758-76.295 22.737-105.095s-26.779-51.537-43.958-53.558-46.115 29.423-53.053 41.432z" fill="#fff"/><path d="m824.235 879.277c-9.36 0-18.182-3.714-22.037-9.599-1.368-2.088-3.337-5.04-5.708-8.592-19.979-29.942-41.454-62.736-43.356-72.882-2.923-15.587 9.613-35.743 15.638-45.429.83-1.334 1.523-2.447 2.009-3.288l3.464 2.001-3.464-2.001c6.313-10.928 36.427-45.822 56.983-43.403 20.267 2.384 45.422 27.912 47.481 57.25 2.09 29.783-16.083 85.601-22.924 106.613-3.438 10.56-11.993 17.494-23.47 19.025-1.54.206-3.086.305-4.616.305zm1.351-175.319c-14.546 0-40.786 27.254-47.878 39.531-.535.926-1.28 2.124-2.143 3.511-5.063 8.139-16.918 27.2-14.568 39.729 1.761 9.39 30.062 51.805 42.148 69.917 2.386 3.576 4.368 6.547 5.745 8.648 2.396 3.657 10.305 6.895 18.904 5.748 4.881-.651 13.57-3.28 16.921-13.572 6.709-20.607 24.531-75.348 22.55-103.577-1.919-27.343-25.608-48.121-40.435-49.865-.403-.047-.82-.071-1.244-.071z"/><path d="m616.098 324.416c7.895 3.782 196.042 84.103 202.105 85.114s79.832 290.021 82.358 299.621 0 28.295 0 28.295 36.884 50.526 34.358 75.789-48.505 114.189-53.558 121.263c-24.201 0-73.263 1.621-73.263 1.621h-483.537s-12.126-98.631-13.137-105.2c-1.011-6.568-71.747 70.232-76.8 73.768-5.053 3.537-96.505-19.705-101.053-20.211-4.547-.505-16.674-16.168-23.242-27.284s-104.084-230.905-105.095-235.453c-1.011-4.547 119.242-147.333 123.789-133.035s35.874 130.642 35.874 130.642 22.232-54.702 24.758-60.26-3.537-25.768.505-32.842 50.837-116.498 54.358-122.886c4.429-8.037 91.663-22.578 96.716-24.625s60.734-32.639 76.8-39.942c22.232-10.105 175.715-25.083 198.063-14.377z"/><path d="m808.098 940.119h-483.537c-2.02 0-3.724-1.506-3.97-3.512-.108-.874-9.562-77.76-12.393-99.655-10.34 8.589-36.522 35.687-50.068 49.707-13.991 14.48-19.444 20.068-21.211 21.306-1.9 1.331-3.864 2.706-35.597-3.961-16.871-3.545-36.494-8.18-50.822-11.564-8.348-1.972-16.233-3.834-17.388-3.989-9.174-1.019-26.058-28.941-26.225-29.222-5.554-9.399-104.204-230.539-105.556-236.62-.482-2.169-.773-3.479 16.912-25.43 10.552-13.098 24.332-29.445 37.805-44.85 25.891-29.602 58.984-65.49 69.613-68.355 3.854-1.04 6.38 1.019 7.175 3.519 3.722 11.701 24.777 89.506 32.833 119.349 6.648-16.321 18.501-45.352 20.346-49.409.675-1.485.013-7.601-.424-11.648-.876-8.104-1.783-16.482 1.098-21.523 2.046-3.581 16.723-37.294 29.673-67.038 14.261-32.757 23.037-52.858 24.655-55.793 3.144-5.706 21.808-10.952 79.88-22.454 9-1.783 17.502-3.467 18.871-3.961 1.879-.762 13.489-6.952 25.78-13.505 18.424-9.823 41.353-22.048 50.833-26.357 22.5-10.227 177.356-25.884 201.447-14.343 10.818 5.182 192.947 82.593 201.13 84.792 3.043.511 4.425 1.138 16.102 41.537 6.072 21.008 14.228 50.662 24.241 88.139 17.706 66.267 36.608 139.747 42.819 163.893 1.28 4.975 2.083 8.101 2.311 8.963 2.274 8.643.858 23.367.293 28.249 5.928 8.329 36.622 52.798 34.177 77.252-2.615 26.149-48.934 115.701-54.283 123.19-.751 1.051-1.963 1.675-3.255 1.675-23.857 0-72.641 1.602-73.131 1.618-.044.002-.088.002-.132.002zm-479.999-8h479.931c1.988-.065 46.916-1.529 71.141-1.617 8.518-14.181 49.456-94.553 51.768-117.665 1.946-19.462-23.601-59.318-33.609-73.034-.608-.833-.871-1.871-.733-2.893.672-4.986 1.999-19.509.096-26.742-.228-.867-1.036-4.008-2.322-9.006-61.417-238.762-75.445-281.75-78.604-288.222-21.02-7.268-199.812-84.158-201.397-84.917-19.843-9.507-171.965 4.086-194.68 14.411-9.25 4.205-32.056 16.364-50.38 26.134-15.501 8.265-24.378 12.984-26.573 13.874-1.606.651-6.555 1.661-20.287 4.381-18.945 3.752-69.069 13.68-74.538 18.676-1.928 3.725-13.255 29.741-24.215 54.918-16.793 38.572-27.958 64.131-30.062 67.813-1.594 2.79-.725 10.827-.09 16.694.827 7.651 1.258 12.508-.247 15.819-2.464 5.421-24.471 59.564-24.694 60.11-.647 1.591-2.235 2.597-3.951 2.486-1.714-.105-3.17-1.293-3.617-2.952-.299-1.109-28.551-106.012-35.039-127.894-6.019 3.57-23.765 19.417-61.148 61.933-29.338 33.366-51.53 61.204-55.316 67.427 3.478 8.716 25.137 58.077 50.425 114.884 29.983 67.354 51.106 113.836 53.816 118.421 6.96 11.78 17.327 24.185 20.403 25.364 1.49.207 6.113 1.285 18.161 4.131 21.838 5.158 72.4 17.086 80.405 16.414 2.377-2.106 11.14-11.176 19.634-19.966 51.65-53.457 55.743-55.714 59.977-54.366 1.604.51 2.764 1.88 3.025 3.576.911 5.924 10.519 83.911 12.721 101.808zm-94.927-31.109s0 0 0 0t0 0zm583.765-487.687c.183.063.384.115.602.152-.14-.024-.342-.075-.602-.152zm-1.561-1.089s0 0 0 0zm3.63-6.621h.01z"/><path d="m407.045 372.266c-1.25 10.977-5.684 41.684-3.221 59.495s70.295 319.453 75.221 328.926c4.926 9.474 98.905-108 101.937-123.916s31.096-289.22 31.832-301.263c.735-12.043-203.515 16.972-205.768 36.758z" fill="#fff"/><path d="m480.011 765.229c-1.943 0-3.626-.986-4.515-2.696-5.463-10.506-73.321-313.499-75.634-330.224-2.225-16.088.92-41.739 2.61-55.519.236-1.925.442-3.605.598-4.976.497-4.359 4.421-9.833 29.761-17.377 15.144-4.509 36.028-9.186 60.394-13.527 46.884-8.352 95.494-13.491 113.073-11.955 2.971.26 10.865.95 10.507 6.798-.872 14.284-28.998 286.56-31.895 301.768-2.345 12.312-43.012 63.225-47.641 68.99-12.215 15.212-24.128 29.186-33.542 39.349-17.106 18.464-20.984 19.033-22.847 19.307-.294.043-.584.064-.869.064zm2.605-6.341h.01zm-71.612-386.048c-.156 1.367-.36 3.028-.593 4.923-1.645 13.418-4.708 38.395-2.626 53.45 1.127 8.151 17.458 82.742 36.403 166.275 19.197 84.64 33.395 144.644 37.494 158.593 6.875-4.964 25.219-24.459 50.129-55.554 28.081-35.053 44.267-59.397 45.24-64.505 2.794-14.668 29.195-270.024 31.612-298.722-6.218-1.348-30.28-.957-76.606 5.538-34.576 4.847-80.542 13.209-105.854 22.139-13.036 4.599-14.978 7.453-15.199 7.863zm.014-.121s0 .002 0 .004c0-.001 0-.002 0-.004z"/><path d="m443.801 805.108c-.903 0-1.811-.304-2.559-.927-1.697-1.414-1.926-3.937-.512-5.633.428-.514 42.9-51.5 49.287-60.835 1.247-1.823 3.736-2.29 5.56-1.042 1.823 1.248 2.29 3.737 1.042 5.56-6.6 9.646-47.985 59.329-49.744 61.438-.791.949-1.929 1.439-3.075 1.439z" fill="#fff"/><path d="m572.645 218.54v150.186s-130.358 75.92-138.695 30.446-13.642-133.389-13.642-133.389l152.337-47.242z" fill="#fff"/><path d="m454.919 381.74c19.496 14.653 49.011 10.667 67.2-2.526 9.756-7.077-7.074 56.589-7.074 56.589s23.31 214.224 21.794 234.434c-15.327 22.808-45.542 57.103-45.542 57.103s-19.646-75.789-26.274-103.074c1.011-18.189 25.263-180.884 25.263-180.884s-35.987-46.836-35.368-61.642z"/><path d="m491.298 731.34c-.309 0-.62-.036-.929-.109-1.44-.344-2.572-1.454-2.943-2.887-.197-.758-19.73-76.132-26.289-103.133-.093-.381-.129-.774-.107-1.166.966-17.383 22.343-161.375 25.052-179.58-6.737-8.881-35.779-48.075-35.16-62.892.062-1.485.942-2.812 2.285-3.448 1.343-.635 2.927-.475 4.115.418 18.109 13.61 45.973 9.383 62.448-2.567 3.225-2.339 5.813-.92 6.529-.429 2.959 2.028 4.933 5.98-.917 33.917-2.497 11.926-5.505 23.657-6.28 26.638 1.736 15.982 23.223 214.487 21.727 234.434-.052.691-.282 1.356-.669 1.932-15.297 22.764-44.62 56.107-45.861 57.516-.769.873-1.867 1.355-3.001 1.355zm-22.243-107.429c5.43 22.295 19.153 75.502 24.209 95.058 9.03-10.505 28.247-33.305 39.637-50.046.571-20.054-13.934-160.104-21.832-232.687-.053-.488-.016-.981.109-1.455 5.021-18.998 9.681-41.19 10.026-50.13-16.382 10.265-40.579 14.604-60.165 5.411 5.69 13.643 21.557 36.743 32.42 50.884.661.861.945 1.953.784 3.027-.24 1.609-23.759 159.509-25.189 179.939z"/><path d="m586.287 283.214c-7.177-9.787-57.095 106.152-84.884 105.647 27.789 22.737 57.095 43.911 61.642 58.563 4.547 14.653 58.611-107.621 59.621-117.221 1.011-9.6-30.821-39.411-36.379-46.989z" fill="#fff"/><path d="m564.301 452.64c-1.863 0-4.147-1.032-5.077-4.03-3.399-10.953-24.058-27.499-45.929-45.017-4.725-3.785-9.612-7.698-14.425-11.636-1.319-1.079-1.809-2.875-1.222-4.475s2.113-2.657 3.828-2.62c4.031.082 11.772-3.768 25.692-22.485 10.356-13.924 20.924-31.675 30.249-47.336 17.152-28.808 22.097-36.147 27.531-36.407 1.804-.086 3.47.72 4.566 2.215 1.424 1.942 5.086 5.853 9.326 10.382 16.274 17.382 28.655 31.32 27.806 39.392-.595 5.652-14.062 37.408-26.267 63.521-26.931 57.621-32.567 58.176-35.594 58.473-.156.015-.317.023-.481.023zm-54.374-62.009c2.811 2.268 5.617 4.515 8.368 6.719 21.739 17.411 40.775 32.657 47.097 45.287 4.154-5.326 13.182-20.545 28.777-54.115 14.358-30.907 24.112-55.435 24.518-58.742.031-.291.071-3.18-8.024-13.271-5.275-6.576-12.146-13.915-17.667-19.811-3.458-3.693-6.369-6.803-8.326-9.108-4.196 4.36-13.083 19.285-20.382 31.544-21.001 35.272-38.835 63.558-54.362 71.497z"/><path d="m474.245 390.329c-12.505-1.516-51.158-55.074-54.189-64.674-3.032-9.6-20.716 38.905-15.158 63.663s26.779 64.674 31.326 70.737 45.602-68.807 38.021-69.726z" fill="#fff"/><path d="m436.909 464.402c-1.523 0-2.933-.677-3.885-1.946-4.515-6.02-26.228-46.417-32.029-72.261-3.25-14.476 1.125-34.283 3.157-42.127 1.701-6.568 3.788-12.827 5.876-17.624 3.381-7.768 5.661-9.327 7.621-9.856 2.221-.598 5.114.355 6.221 3.863 1.243 3.935 10.942 18.908 22.874 34.103 16.725 21.298 25.459 27.499 27.983 27.805 2.323.281 4.042 2.085 4.38 4.594.968 7.174-10.821 29.662-15.935 38.998-6.365 11.62-17.964 31.491-24.139 34.02-.71.291-1.429.432-2.125.432zm-18.603-133.024c-5.148 10.395-13.372 39.839-9.505 57.064 4.911 21.875 22.368 55.855 28.875 66.541 3.362-3.746 10.084-13.514 18.643-29.175 9.097-16.644 13.69-27.942 14.663-32.285-6.837-2.831-17.083-12.904-30.53-30.029-8.44-10.748-17.871-24.189-22.146-32.116zm55.458 62.922h.01z"/><path d="m568.603 156.898c8.589-1.011 21.221 11.116 22.737 37.389 1.516 26.274-10.611 38.4-18.695 43.453l-25.263 50.021c-4.547 7.579-47.495 68.211-70.232 72.758s-91.453-51.032-100.683-66.695-23.612-114.695-23.612-114.695c-4.547-29.305-9.853-96 57.6-111.158l158.147 88.926z" fill="#fff"/><path d="m474.316 364.777c-14.595 0-37.546-14.247-54.914-26.783-21.379-15.431-41.318-33.547-46.382-42.139-9.36-15.882-22.641-105.935-24.124-116.151-.317-2.186 1.198-4.216 3.384-4.533 2.184-.318 4.216 1.198 4.533 3.384 3.969 27.329 15.856 100.947 23.099 113.239 9.44 16.019 76.933 68.702 96.453 64.803 20.263-4.052 62.01-61.6 67.586-70.894 1.136-1.895 3.593-2.509 5.488-1.372 1.895 1.136 2.509 3.594 1.372 5.488-2.479 4.131-14.647 21.514-28.675 38.046-18.807 22.166-33.679 34.472-44.202 36.577-1.136.227-2.346.336-3.618.336z"/><path d="m572.649 241.74c-1.334 0-2.637-.666-3.396-1.88-1.171-1.874-.601-4.341 1.272-5.512 6.892-4.307 18.242-15.21 16.822-39.83-.802-13.908-5.193-25.492-11.745-30.989-2.277-1.91-4.656-2.88-6.531-2.659-2.199.257-4.182-1.312-4.44-3.505-.258-2.194 1.311-4.182 3.505-4.44 4.112-.484 8.591 1.105 12.608 4.475 8.331 6.989 13.649 20.35 14.59 36.656 1.658 28.738-12.175 41.829-20.568 47.075-.659.412-1.392.608-2.116.608z"/><path d="m403.382 106.372s-62.147 111.663-63.663 114.189-14.653-10.105-14.653-20.716-2.021-76.295 0-86.905c2.021-10.611 49.516-87.411 60.632-87.916s32.842 3.537 32.842 3.537 77.305-29.811 92.463-23.747c15.158 6.063 95.495 94.989 99.032 98.526s-17.383 67.548-23.344 69.395-23.645-2.7-39.308.837-138.442-52.547-144-67.2z"/><path d="m339.055 224.882c-.501 0-1.018-.07-1.539-.215-5.417-1.5-16.449-13.937-16.449-24.823 0-2.469-.114-8.103-.258-15.234-.654-32.337-1.167-64.565.329-72.419 1.275-6.694 15.115-30.342 27.491-49.194 27.263-41.532 34.256-41.85 36.889-41.969 10.104-.458 27.952 2.564 32.634 3.397 15.294-5.862 78.905-29.499 94.338-23.325 9.412 3.765 39.444 33.345 94.511 93.09 3.021 3.277 5.406 5.865 5.863 6.322 1.992 1.991 2.414 5.064-.573 17.14-2.462 9.957-6.857 23.853-11.196 35.4-8.253 21.964-11.242 22.891-13.219 23.503-3.173.983-7.639.659-13.819.21-7.641-.554-17.149-1.245-25.792.708-.684.155-1.493.228-2.41.228-16.055.001-65.665-22.53-75.939-27.278-16.806-7.766-52.929-25.179-65.859-37.038-12.301 22.099-59.546 106.965-60.907 109.233-.872 1.453-2.391 2.263-4.094 2.263zm46.95-195.868c-2.478.765-12.125 9.937-31.441 39.521-14.118 21.624-24.806 41.151-25.568 45.153-1.465 7.69-.635 48.719-.189 70.76.145 7.177.26 12.846.26 15.396 0 5.913 5.556 12.919 8.823 15.827 7.919-14.113 42.773-76.705 61.998-111.246.753-1.353 2.232-2.127 3.771-2.025 1.545.104 2.899 1.11 3.464 2.552 1.521 3.879 23.077 18.312 66.24 38.252 36.955 17.072 64.692 26.562 72.058 26.563.431 0 .791-.032 1.081-.098 9.802-2.213 19.967-1.475 28.134-.883 4.106.297 8.34.605 10.361.247 1.769-2.104 6.553-11.873 12.983-31.174 5.882-17.653 8.416-29.271 8.467-32.488-.919-.98-2.578-2.778-5.328-5.761-65.697-71.277-86.074-88.874-91.6-91.084-9.978-3.99-60.216 12.459-89.538 23.766-.691.267-1.443.336-2.171.2-.212-.04-21.239-3.923-31.804-3.479zm220.414 75.798s0 0 0 0z"/><path d="m379.853 183.151c-.244 0-.504-.019-.782-.059-1.971-.281-3.437-1.971-3.437-3.963 0-.503.093-.985.263-1.428.108-.351.346-1.175.7-2.391 21.016-72.277 28.788-78.569 31.342-80.637 1.718-1.389 4.236-1.125 5.626.592s1.125 4.236-.592 5.626c-1.965 1.591-9.843 11.82-28.694 76.652-.902 3.104-1.631 5.607-4.426 5.607zm3.782-4.021h.01z"/><path d="m404.894 216.478c-.601 0-1.211-.136-1.786-.423-3.869-1.934-16.581-3.25-23.685-3.625-2.206-.116-3.9-1.999-3.784-4.205s1.995-3.902 4.205-3.784c2.051.108 20.224 1.15 26.842 4.459 1.976.988 2.777 3.391 1.789 5.366-.701 1.402-2.114 2.212-3.581 2.212z"/><path d="m464.016 207.888c-1.173 0-2.336-.514-3.126-1.501-1.38-1.725-1.1-4.242.625-5.622 5.399-4.319 29.456-11.457 34.223-12.844 2.122-.616 4.341.603 4.958 2.723.617 2.121-.602 4.341-2.723 4.958-11.224 3.266-28.405 8.964-31.461 11.409-.737.59-1.62.877-2.496.877z"/><path d="m404.633 246.267c-8.097 0-15.612-2.433-15.932-2.538-3.149-1.033-4.865-4.422-3.832-7.571 1.031-3.146 4.416-4.861 7.561-3.835.062.02 6.211 1.979 12.421 1.943h.048c3.292 0 5.973 2.656 5.999 5.953.026 3.314-2.64 6.021-5.953 6.046-.103 0-.208.001-.311.001z"/><path d="m475.465 238.18c-2.512 0-4.853-1.59-5.691-4.104-1.048-3.144.651-6.542 3.795-7.59 4.35-1.45 18.548-7.01 18.691-7.066 3.085-1.208 6.566.313 7.775 3.398s-.313 6.566-3.398 7.775c-.595.233-14.633 5.729-19.273 7.277-.63.21-1.269.31-1.898.31z"/><path d="m440.472 303.404c-1.377 0-2.217-.02-2.331-.023-2.208-.057-3.951-1.894-3.895-4.102s1.91-3.934 4.101-3.896c17.276.443 36.755-2.733 38.226-8.163.578-2.132 2.773-3.393 4.906-2.815 2.132.577 3.393 2.774 2.815 4.906-1.854 6.844-10.258 11.105-25.693 13.029-7.438.927-14.574 1.063-18.131 1.063z"/><path d="m180.305 649.994c-1.774 0-3.395-1.189-3.866-2.986l-11.368-43.326c-.561-2.137.717-4.323 2.854-4.884 2.136-.561 4.324.717 4.884 2.854l11.368 43.326c.561 2.137-.717 4.323-2.854 4.884-.34.089-.682.132-1.018.132z" fill="#fff"/><path d="m777.276 787.466s-36.379-104.084-37.895-110.147-18.189-24.253-23.242-37.895-16.168-60.126-15.663-65.179 61.137-58.611 68.716-57.095 21.726 18.695 21.726 18.695 16.168-9.6 21.726 0 19.2 38.905 16.168 49.516-22.737 65.179-21.221 69.726 27.128 47.339 27.128 47.339l-57.444 85.04z" fill="#fff"/><path d="m777.277 791.467c-1.653 0-3.2-1.033-3.776-2.681-1.488-4.257-36.457-104.327-38-110.497-.477-1.906-4.361-7.332-7.789-12.119-5.475-7.647-12.29-17.164-15.324-25.357-4.829-13.038-16.509-60.801-15.892-66.966.161-1.611.431-4.307 20.327-22.404 11.721-10.661 24.9-21.646 34.395-28.669 13.058-9.659 16.428-10.012 18.759-9.545 7.099 1.42 17.254 12.231 21.928 17.598 3.885-1.818 10.718-4.302 16.616-2.764 3.267.852 5.89 2.85 7.585 5.779 4.196 7.248 20.331 39.394 16.553 52.618-.929 3.251-3.255 10.146-6.2 18.875-5.175 15.336-14.724 43.638-14.947 48.797 1.75 4.015 15.417 27.067 27.791 47.38 1.149 1.887.552 4.348-1.335 5.497-1.888 1.149-4.348.551-5.497-1.335-4.511-7.405-27.094-44.584-28.674-49.321-1.117-3.351.906-11.564 15.082-53.576 2.796-8.288 5.211-15.445 6.088-18.515 2.37-8.296-9.184-35.012-15.784-46.413-.634-1.094-1.458-1.724-2.672-2.043-4.321-1.134-11.412 2.218-13.556 3.482-1.696 1-3.872.62-5.124-.899-5.355-6.497-14.648-15.938-19.067-17.228-2.796.748-13.804 7.854-33.954 25.088-17.287 14.787-28.355 25.887-30.346 28.864.379 6.452 10.251 48.95 15.425 62.921 2.662 7.187 9.129 16.22 14.326 23.478 5.237 7.313 8.239 11.608 9.045 14.835 1.207 4.829 27.688 80.896 37.79 109.798.729 2.085-.371 4.367-2.456 5.096-.437.153-.882.225-1.32.225zm-73.031-215.989s0 0 0 0z"/><path d="m119.056 512.094-11.253-29.806s9.968-22.572 13.192-39.055c3.355-17.155 1.966-38.25-.56-58.966 5.432 11.495 22.619 29.639 28.295 28.295 9.6-2.274-17.967-58.36-25.768-64.168-7.801-5.809-22.737-21.726-27.789-21.221-5.053.505-45.05 22.388-45.808 29.588-1.011 9.6-.697 146.749-.697 156.854s4.798 62.94 4.798 62.94l65.592-64.46z" fill="#fff"/><path d="m42.687 548.951c-11.274 13.453-45.411 62.664-37.453 72.789 13.535 17.221 92.472-55.698 109.699-82.358 25.711-39.789 14.09-69.347-2.71-59.116 0 0-48.246 43.278-69.537 68.684z" fill="#fff"/><path d="m55.756 606.667c-2.047 0-3.792-1.564-3.979-3.643-.29-3.231-7.111-79.243-7.111-89.411 0-1.063-.003-3.536-.009-7.12-.134-95.116.104-144.232.728-150.154.215-2.042.718-6.822 23.214-20.316 7.902-4.74 21.996-12.416 26.174-12.833 4.386-.438 9.326 3.885 17.685 11.564 4.327 3.975 9.231 8.481 12.336 10.082 1.963 1.012 2.734 3.425 1.722 5.388-1.013 1.963-3.425 2.735-5.388 1.722-4.059-2.093-8.927-6.566-14.082-11.301-3.823-3.512-9.545-8.77-11.674-9.453-6.183 1.444-39.463 20.627-42.05 26.192-.397 4.583-.825 34.518-.664 149.098.005 3.589.009 6.065.009 7.131 0 9.812 7.008 87.907 7.079 88.695.198 2.2-1.426 4.144-3.626 4.342-.122.011-.243.017-.363.017zm-2.481-249.176s0 0 0 0z"/><path d="m11.419 628.342c-5.002 0-7.825-2.215-9.329-4.13-1.712-2.178-6.921-8.806 10.316-41.997 8.155-15.703 19.257-33.053 25.273-39.5 1.508-1.615 4.039-1.702 5.653-.195 1.615 1.507 1.702 4.039.195 5.654-4.801 5.144-15.35 21.03-24.022 37.728-12.191 23.474-12.165 32.044-11.126 33.366.254.323.927 1.175 3.484 1.063 21.591-.999 84.939-60.261 99.71-83.12 17.049-26.384 16.449-47.449 10.676-53.378-.754-.775-3.049-3.132-7.945-.15-1.887 1.149-4.348.551-5.497-1.336s-.551-4.348 1.336-5.497c6.476-3.944 13.144-3.42 17.838 1.402 9.324 9.577 8.991 34.395-9.688 63.301-14.85 22.981-79.589 85.545-106.06 86.77-.278.013-.549.02-.814.02z"/><path d="m126.498 535.804c-1.616 0-3.138-.987-3.743-2.588l-18.695-49.516c-.37-.981-.341-2.069.083-3.029.098-.222 9.826-22.363 12.926-38.208 3.512-17.955 1.521-40.275-.605-57.714-.238-1.948.974-3.782 2.86-4.327s3.889.359 4.727 2.134c4.978 10.534 22.616 25.764 27.983 28.447 1.976.988 2.777 3.39 1.789 5.366s-3.391 2.778-5.366 1.789c-4.777-2.388-14.67-10.471-22.445-19.197 1.27 14.779 1.653 31.012-1.091 45.037-2.824 14.441-10.491 32.983-12.803 38.39l18.122 48c.78 2.067-.263 4.375-2.329 5.155-.465.176-.943.259-1.412.259z"/></svg>