<svg height="701.804" viewBox="0 0 530.255 701.804" width="530.255" xmlns="http://www.w3.org/2000/svg"><path d="m357.23 510.678-92.742 29.88v-112.828l92.742-29.881z" fill="#fff"/><path d="m264.489 544.558c-.836 0-1.663-.262-2.355-.767-1.033-.753-1.645-1.954-1.645-3.233v-112.829c0-1.737 1.12-3.275 2.773-3.807l92.742-29.881c1.217-.392 2.548-.179 3.582.574 1.033.753 1.645 1.954 1.645 3.233v112.829c0 1.737-1.12 3.275-2.773 3.807l-92.742 29.881c-.401.129-.815.193-1.226.193zm4-113.915v104.424l84.742-27.303v-104.424zm88.742 80.034h.01z"/><path d="m456.656 7.832-361 513.065-18.061-3.832-73.595-397.361 434.596-115.704z"/><path d="m95.656 524.897c-.276 0-.554-.029-.831-.087l-18.06-3.832c-1.583-.336-2.808-1.593-3.103-3.184l-73.595-397.361c-.381-2.055.885-4.056 2.904-4.594l434.596-115.704c.607-.162 1.245-.178 1.859-.048l18.06 3.832c1.315.279 2.402 1.2 2.893 2.45.491 1.251.322 2.665-.452 3.764l-361 513.065c-.759 1.078-1.987 1.698-3.271 1.698zm-14.615-11.19 12.862 2.729 355.994-505.949-11.196-2.375-430.094 114.505z"/><path d="m526.255 383.613-430.599 137.284-73.596-397.361 434.596-115.704z" fill="#fff"/><path d="m95.656 524.897c-.717 0-1.427-.192-2.055-.568-.985-.59-1.669-1.574-1.878-2.703l-73.596-397.361c-.381-2.055.885-4.056 2.904-4.594l434.596-115.704c1.077-.287 2.224-.111 3.167.484.942.595 1.593 1.557 1.796 2.653l69.599 375.781c.367 1.982-.798 3.927-2.718 4.54l-430.599 137.284c-.397.126-.807.189-1.215.189zm-68.988-398.448 72.095 389.259 422.917-134.834-68.17-368.065z"/><path d="m499.684 365.826-380.209 121.219-64.983-350.86 383.738-102.165z" fill="#fff"/><path d="m119.475 491.045c-.717 0-1.427-.192-2.055-.568-.985-.59-1.669-1.574-1.878-2.703l-64.984-350.861c-.381-2.055.885-4.056 2.904-4.594l383.739-102.164c1.077-.287 2.224-.111 3.167.484.942.595 1.593 1.557 1.796 2.653l61.454 331.806c.367 1.982-.798 3.927-2.718 4.539l-380.209 121.219c-.397.127-.807.189-1.215.189zm-60.376-351.948 63.482 342.759 372.527-118.769-60.025-324.09z"/><path d="m224.552 697.804-109.065-89.998 266.984-136.396 105.104 71.482z" fill="#fff"/><path d="m224.553 701.804c-.909 0-1.813-.309-2.547-.915l-109.065-89.998c-1.039-.857-1.577-2.18-1.43-3.52s.957-2.515 2.156-3.128l266.984-136.396c1.301-.665 2.861-.567 4.069.255l105.104 71.482c1.133.771 1.793 2.068 1.748 3.438-.044 1.37-.787 2.621-1.968 3.317l-263.022 154.912c-.63.371-1.331.553-2.029.553zm-101.823-93.207 102.206 84.338 255.168-150.286-97.924-66.599-259.45 132.547z"/><path d="m224.552 697.804-109.065-55.864v-34.134z" fill="#fff"/><path d="m224.55 701.804c-.616 0-1.24-.142-1.821-.44l-109.065-55.864c-1.336-.684-2.177-2.059-2.177-3.56v-34.134c0-1.549.894-2.958 2.295-3.618s3.057-.453 4.251.533l109.065 89.998c1.575 1.3 1.918 3.577.796 5.283-.763 1.16-2.036 1.803-3.345 1.803zm-105.063-62.31 74.135 37.973-74.135-61.175z"/><path d="m286.348 629.901c-1.397 0-2.754-.733-3.489-2.038-1.084-1.925-.403-4.364 1.522-5.448l81.752-46.05c1.925-1.084 4.364-.403 5.448 1.522s.403 4.364-1.522 5.448l-81.752 46.05c-.621.349-1.295.516-1.959.516z"/><path d="m396.125 522.024c-1.401 0-2.76-.737-3.494-2.046-1.079-1.928-.392-4.365 1.536-5.444l13.331-7.465c1.927-1.079 4.365-.392 5.444 1.536s.392 4.365-1.536 5.444l-13.331 7.465c-.618.346-1.289.511-1.951.511z"/><path d="m367.891 537.835c-1.401 0-2.76-.737-3.494-2.046-1.079-1.928-.392-4.365 1.536-5.444l17.095-9.573c1.927-1.079 4.365-.392 5.444 1.536 1.079 1.927.392 4.365-1.536 5.444l-17.095 9.573c-.618.346-1.289.511-1.951.511z"/><path d="m331.918 557.98c-1.401 0-2.76-.737-3.494-2.046-1.079-1.927-.392-4.365 1.536-5.444l19.799-11.087c1.927-1.079 4.365-.392 5.444 1.536 1.079 1.927.392 4.365-1.536 5.444l-19.799 11.087c-.618.346-1.289.511-1.951.511z"/><path d="m274.161 590.323c-1.401 0-2.76-.737-3.494-2.046-1.079-1.927-.392-4.365 1.536-5.444l17.65-9.884c1.927-1.079 4.365-.392 5.444 1.536s.392 4.365-1.536 5.444l-17.65 9.884c-.618.346-1.289.511-1.951.511z"/><path d="m230.332 614.868c-1.401 0-2.76-.737-3.494-2.046-1.079-1.927-.392-4.365 1.536-5.444l23.725-13.286c1.927-1.079 4.365-.392 5.444 1.536s.392 4.365-1.536 5.444l-23.725 13.286c-.618.346-1.289.511-1.951.511z"/><path d="m194.248 635.075c-1.401 0-2.76-.737-3.494-2.046-1.079-1.927-.392-4.365 1.536-5.444l16.622-9.308c1.927-1.079 4.365-.392 5.444 1.536 1.079 1.927.392 4.365-1.536 5.444l-16.622 9.308c-.618.346-1.289.511-1.951.511z"/><path d="m363.15 511.896c-1.433 0-2.818-.772-3.537-2.126-1.035-1.951-.293-4.373 1.658-5.408l19.437-10.314c1.951-1.036 4.373-.293 5.408 1.658s.293 4.373-1.658 5.408l-19.437 10.314c-.597.317-1.239.468-1.872.468z"/><path d="m305.91 542.27c-1.433 0-2.818-.772-3.537-2.126-1.035-1.951-.293-4.373 1.658-5.408l26.564-14.096c1.951-1.036 4.373-.293 5.408 1.658s.293 4.373-1.658 5.408l-26.564 14.096c-.597.317-1.239.468-1.872.468z"/><path d="m273.577 559.427c-1.433 0-2.818-.772-3.537-2.126-1.035-1.951-.293-4.373 1.658-5.408l17.625-9.353c1.951-1.036 4.373-.293 5.408 1.658s.293 4.373-1.658 5.408l-17.625 9.353c-.597.317-1.239.468-1.872.468z"/><path d="m224.556 585.44c-1.433 0-2.818-.772-3.537-2.126-1.035-1.951-.293-4.373 1.658-5.408l20.052-10.641c1.951-1.036 4.373-.293 5.408 1.658s.293 4.373-1.658 5.408l-20.052 10.641c-.597.317-1.239.468-1.872.468z"/><path d="m170.023 614.378c-1.433 0-2.818-.772-3.537-2.126-1.035-1.951-.293-4.373 1.658-5.408l30.227-16.04c1.951-1.036 4.373-.293 5.408 1.658s.293 4.373-1.658 5.408l-30.227 16.04c-.597.317-1.239.468-1.872.468z"/><path d="m230.332 659.393c-1.377 0-2.718-.712-3.461-1.989-1.111-1.909-.464-4.358 1.445-5.469l27.558-16.04c1.909-1.111 4.358-.464 5.469 1.445s.464 4.358-1.445 5.469l-27.558 16.04c-.633.368-1.325.544-2.009.544z"/></svg>