<svg height="319.466" viewBox="0 0 364.913 319.466" width="364.913" xmlns="http://www.w3.org/2000/svg"><path d="m97.174 292.983c16.48-100.61 55.658-105.534-73.714-125.163 147.24-54.264 105.261-64.828 171.048-149.594 28.106 128.094 58.867 82.656 151.88 120.476-116.802 55.961-110.982 15.159-68.234 138.563-128.8-55.869-69.572-92.277-180.981 15.718z" fill="#fff"/><path d="m105.525 194.201c-26.584-6.144-93.702-3.703-104.844-28.408 168.427-58.101 119.904-74.382 189.132-165.02 85.207 90.922-29.991 87.674 161.354 124.009 63.212 36.717-122.567 38.568-81.899 82.754.761 20.76 40.325 85.19 17.589 97.709-36.428-18.339-73.88-41.361-110.529-68.933-113.817 115.736-115.698 117.204-70.803-42.111zm-8.351 98.782c110.404-103.413 42.352-78.479 180.981-15.718-46.38-127.036-42.545-82.479 68.234-138.563-130.551-47.213-113.864 8.408-151.88-120.476-75.757 117.857-56.41 103.106-171.049 149.594 114.701 26.12 99.808-4.822 73.714 125.163z"/><path d="m83.711 319.449c-.995 0-1.862-.215-2.609-.648-9.225-5.354.621-41.972 23.799-124.229-7.347-1.635-17.849-2.677-28.953-3.778-30.101-2.985-67.563-6.701-75.723-24.795l-.225-.5.518-.179c119.366-41.177 129.655-61.443 150.153-101.819 8.301-16.349 18.631-36.697 38.745-63.032l.358-.469.404.431c32.646 34.835 35.914 55.553 38.301 70.68 3.731 23.649 4.857 30.786 122.781 53.179l.157.059c9.586 5.567 13.985 10.623 13.452 15.456-1.085 9.818-22.852 16.698-45.896 23.981-25.244 7.979-51.35 16.23-54.729 28.917-1.201 4.507.563 9.248 5.392 14.495l.125.136.007.185c.256 6.988 5.114 19.373 10.258 32.484 10.521 26.819 22.446 57.216 7.072 65.681l-.23.127-.235-.118c-37.816-19.038-74.91-42.157-110.255-68.717-52.621 53.508-81.129 82.472-92.667 82.475zm-82.341-153.365c8.395 17.139 45.115 20.783 74.676 23.714 11.397 1.13 22.162 2.198 29.591 3.915l.511.118-.142.505c-22.533 79.961-32.983 118.619-24.402 123.599.624.362 1.359.542 2.205.542 11.014.003 40.895-30.384 92.163-82.516l.307-.313.351.264c35.329 26.58 72.408 49.714 110.215 68.766 14.249-8.241 2.058-39.316-7.748-64.311-5.354-13.648-9.985-25.451-10.319-32.628-4.915-5.392-6.765-10.537-5.498-15.293 3.521-13.217 29.892-21.552 55.395-29.612 22.725-7.183 44.189-13.967 45.203-23.138.484-4.385-3.731-9.108-12.887-14.438-118.528-22.511-119.683-29.813-123.498-53.99-2.356-14.937-5.579-35.369-37.639-69.721-19.824 26.035-30.058 46.192-38.29 62.408-20.59 40.557-30.938 60.943-150.192 102.13zm95.006 128.331.308-1.531c4.032-20.089 7.817-36.419 10.858-49.541 6.79-29.298 10.197-44.003 4.966-51.91-4.807-7.264-16.713-9.356-40.434-13.525-12.817-2.252-28.77-5.056-48.727-9.601l-1.551-.353 1.475-.598c8.491-3.444 16.248-6.551 23.363-9.402q78.685-31.523 126.444-106.996c6.113-9.661 13.043-20.611 21.008-33.003l.591-.919.582 1.973q26.205 88.84 67.802 96.675c18.624 3.508 44.131 8.312 83.497 22.548l1.089.394-1.033.523c-26.787 13.561-47.378 21.263-62.413 26.886-20.693 7.74-31.081 11.625-33.152 21.564-2.098 10.067 4.093 26.575 16.426 59.464 3.292 8.777 7.021 18.725 11.149 30.03l.408 1.118-1.084-.491c-39.273-17.78-61.881-32.466-76.841-42.185q-27.858-18.098-59.13 13.976c-10.393 10.659-24.626 25.257-44.462 43.837l-1.14 1.067zm-71.252-126.73c19.209 4.333 34.651 7.047 47.123 9.239 24.003 4.218 36.051 6.336 41.095 13.958 5.469 8.265 2.243 22.187-4.826 52.688-2.962 12.78-6.629 28.604-10.543 47.979 19.226-18.056 33.104-32.289 43.289-42.735q31.848-32.664 60.391-14.116c14.796 9.612 37.088 24.093 75.623 41.62-3.964-10.84-7.556-20.418-10.737-28.903-12.4-33.07-18.625-49.668-16.468-60.02 2.184-10.479 12.743-14.428 33.78-22.297 14.819-5.542 35.043-13.106 61.277-26.319-38.673-13.905-63.833-18.644-82.252-22.112q-42.177-7.944-68.538-97.25c-7.716 12.012-14.453 22.658-20.414 32.078q-47.933 75.746-126.917 107.39c-6.699 2.684-13.968 5.596-21.883 8.801z"/></svg>