<svg height="146.724" viewBox="0 0 215.395 146.724" width="215.395" xmlns="http://www.w3.org/2000/svg"><path d="m92.448 122.072c8.693 15.221 16.051 21.346 16.051 21.346l103.59-15.227s-14.966-8.332-27.752-28.526c-8.522-13.459-15.849-60.354-15.849-60.354l-95.588 1.677s2.011 50.376 19.548 81.084z" fill="#fff"/><path d="m3.305 4.982s6.308 46.097 12.536 64.441c9.59 28.25 23.064 37.989 23.064 37.989l103.59-15.227s-14.966-8.332-27.752-28.526c-8.522-13.459-15.849-60.354-15.849-60.354z" fill="#fff"/><path d="m38.904 111.412c-.836 0-1.657-.262-2.343-.758-.592-.428-14.622-10.821-24.508-39.945-6.278-18.495-12.451-63.287-12.711-65.184-.155-1.133.182-2.278.926-3.146s1.824-1.376 2.967-1.396l95.587-1.678c2.042-.022 3.713 1.409 4.022 3.382 2.003 12.817 8.654 48.372 15.277 58.832 12.022 18.987 26.185 27.096 26.327 27.176 1.491.839 2.287 2.535 1.976 4.217-.312 1.682-1.655 2.982-3.348 3.231l-103.59 15.227c-.193.028-.388.042-.582.042zm-30.998-102.51c1.749 11.958 6.813 44.772 11.722 59.236 7.378 21.735 17.154 32.024 20.477 35.055l92.032-13.528c-5.745-4.759-13.584-12.511-20.774-23.866-7.567-11.952-13.961-47.172-15.859-58.434z"/><path d="m108.499 147.419c-.836 0-1.657-.262-2.343-.758-.358-.259-8.863-6.523-17.261-22.75-1.015-1.962-.248-4.375 1.714-5.391s4.375-.248 5.391 1.714c5.684 10.985 11.326 16.811 13.696 18.966l92.035-13.529c-5.745-4.759-13.584-12.511-20.774-23.866-7.567-11.952-13.96-47.172-15.858-58.434l-39.508.693c-2.192.054-4.031-1.72-4.07-3.929s1.721-4.031 3.929-4.07l42.967-.754c2.022-.039 3.714 1.408 4.022 3.382 2.003 12.817 8.653 48.371 15.276 58.832 12.022 18.988 26.185 27.096 26.327 27.176 1.491.839 2.287 2.535 1.976 4.217-.312 1.682-1.655 2.982-3.348 3.231l-103.59 15.227c-.193.028-.388.042-.582.042z"/></svg>