<svg xmlns="http://www.w3.org/2000/svg" viewBox="0 0 1200 800" width="1200" height="800"><path fill="#FFF" d="M0 0h1200v800H0z"/><g transform="translate(514.0 307.0) rotate(0.0 86.5 92.5) scale(1.001766119459162 1.0001189330623101)"><svg width="172.695" height="184.978" viewBox="0 0 172.695 184.978"><g><path d="M76.092 184.978C-41.043 177.937-13.375-7.009 94.045.206c120.819 13.124 92.618 184.156-17.953 184.772zm83.086-98.135.219.006C153.157-47.827 5.878 1.51 11.921 107.392c18.797 120.181 146.421 78.925 147.257-20.549z"/><path d="M85.19 128.752c7.709-18.744-2.892-109.384 20.088-94.944-6.911 92.775-1.976 159.651-45.099 75.93-11.329-23.698 21.626 9.525 25.011 19.014z"/></g></svg></g></svg>