<svg height="855.516" viewBox="0 0 855.516 855.516" width="855.516" xmlns="http://www.w3.org/2000/svg" xmlns:xlink="http://www.w3.org/1999/xlink"><clipPath id="a"><circle cx="427.758" cy="427.758" r="423.758"/></clipPath><g clip-path="url(#a)"><path d="m681.022 549.841c-3.032-25.769-134.25-79.141-181.996-114.834-52.194-39.019-152.299 18.507-162.107 22.569-70.89 29.354-120.211 37.064-125.849 47.675-4.641 8.734-35.342 157.145-44.082 212.089l-24.072 46.107s108.876 110.016 268.922 109.258 312.383-97.768 312.383-97.768-40.168-199.326-43.2-225.095z" fill="#fff"/><path d="m478.835 274.537c.817-37.211-101.115-111.083-138.313-116.588s-69.495 39.819-77.012 56.72c-9.138 20.545-20.732 78.359-13.094 115.234s34.649 95.621 52.107 97.926c9.877 1.304 26.223-1.171 44.465-9.574l7.87 29.882c-24.43 3.688-26.79 16.173-13.696 64.571 4.639 17.148 23.556 65.84 40.94 109.483l75.152-180.32-19.399-51.277s40.163-78.844 40.979-116.056z" fill="#fff"/><path d="m304.69 431.955c-.969 0-1.866-.052-2.69-.161-21.696-2.864-48.645-67.984-55.5-101.08-7.832-37.813 4.511-96.657 13.324-117.598.857-2.036 3.201-2.991 5.239-2.135 2.036.857 2.992 3.203 2.135 5.239-8.477 20.141-20.365 76.657-12.864 112.871 8.439 40.744 35.3 93.001 48.713 94.771 13.376 1.766 58.275-17.264 74.448-24.746 2.007-.927 4.382-.054 5.31 1.951.927 2.005.054 4.382-1.951 5.31-5.885 2.723-55.893 25.575-76.164 25.577z"/><path d="m255.689 240.447c-7.707-14.254-3.187-58.812 20.855-73.254 21.776-13.08 99.061-32.42 137.548-23.969 31.029 6.813 82.687 22.409 82.202 92.187-.329 47.368-20.369 119.075-20.369 119.075l-39.282 26.888s23.278-48.398 27.643-79.127-29.825-39.18-40.01-16.901c-10.184 22.279-69.835-119.075-88.021-119.075s-73.129 22.325-80.566 74.176z"/><path d="m436.644 385.374c-.933 0-1.861-.325-2.606-.965-1.375-1.18-1.784-3.136-1-4.769.23-.479 23.062-48.202 27.288-77.957 2.065-14.54-5.497-22.128-12.6-24.208-6.783-1.987-15.541.189-19.812 9.533-1.801 3.94-4.736 4.644-6.325 4.712-9.225.401-20.177-17.378-44.935-61.116-8.473-14.969-17.234-30.448-24.79-42.004-11.14-17.04-14.98-18.259-15.637-18.331-8.823 0-26.549 5.925-41.966 16.903-13.663 9.729-30.758 26.969-34.613 53.842-.245 1.708-1.558 3.067-3.257 3.37-1.7.304-3.4-.518-4.221-2.036-4.42-8.177-5.172-23.971-1.87-39.301 2.288-10.62 8.471-29.845 24.185-39.284 22.778-13.682 100.484-33.229 140.465-24.447 16.43 3.607 37.48 9.513 54.569 23.273 20.641 16.62 30.995 41.13 30.774 72.849-.329 47.358-19.692 117.175-20.516 120.124-.253.906-.817 1.693-1.593 2.224l-39.282 26.888c-.684.468-1.473.699-2.258.699zm6.323-116.595c2.307 0 4.659.332 7.008 1.02 10.972 3.214 20.877 14.667 18.271 33.011-3.034 21.357-14.731 50.473-22.022 67.159l26.229-17.954c2.762-10.206 19.543-73.947 19.84-116.632.437-62.739-42.021-80.12-79.06-88.252-37.57-8.249-113.333 10.699-134.63 23.491-9.588 5.76-17.054 18.193-20.483 34.111-1.359 6.31-1.906 12.343-1.861 17.621 15.835-41.438 62.13-60.083 79.996-60.083 9.88 0 22.019 19.622 47.361 64.393 7.997 14.128 16.266 28.737 23.275 39.574 8.438 13.047 12.365 16.375 13.85 17.221 4.32-9.239 12.885-14.68 22.225-14.68z"/><path d="m456.454 133.163s40.664-34.118 49.104-27.14c8.44 6.979-6.902 27.14-6.902 27.14s69.816 25.589 75.954 82.194 0 66.686 0 66.686l-11.509-14.733-10.741 100.804-15.345-15.508-13.043 31.017-45.267-71.338-35.293-151.206s-4.986-14.068 13.043-27.915z"/><path d="m523.971 387.622c-1.361 0-2.639-.694-3.376-1.857l-45.268-71.338c-.241-.379-.416-.796-.518-1.234l-35.257-151.054c-.705-2.303-4.455-17.572 14.398-32.096.978-.817 10.73-8.928 21.637-16.371 17.473-11.923 27.199-15.131 32.52-10.731 8.532 7.055 1.281 21.192-3.332 28.407 6.548 2.856 18.996 8.902 31.935 18.469 24.763 18.31 39.244 40.824 41.877 65.109 5.982 55.162.583 67.32-.56 69.198-.683 1.122-1.873 1.836-3.184 1.913-1.319.071-2.577-.496-3.385-1.531l-5.426-6.946-9.694 90.979c-.164 1.536-1.197 2.84-2.655 3.351-1.459.511-3.08.137-4.166-.961l-11.135-11.253-10.722 25.499c-.578 1.373-1.869 2.311-3.353 2.435-.112.01-.224.014-.335.014zm-41.525-76.908 40.805 64.305 10.077-23.964c.518-1.231 1.617-2.123 2.928-2.376 1.31-.253 2.664.164 3.603 1.114l9.417 9.518 9.848-92.423c.173-1.621 1.311-2.974 2.878-3.422 1.566-.448 3.249.099 4.252 1.383l6.362 8.145c.99-8.196 1.521-24.895-1.982-57.205-5.794-53.432-72.681-78.622-73.355-78.87-1.191-.438-2.105-1.416-2.46-2.634s-.113-2.533.656-3.543c5.447-7.177 11.097-18.689 7.536-21.635.003.008-.154-.051-.551-.051-1.67 0-7.561 1.003-23.307 11.874-10.542 7.278-20.031 15.219-20.126 15.299-.044.037-.089.073-.134.108-15.285 11.739-11.847 22.981-11.693 23.454.049.14.075.235.109.38l35.139 150.545zm-25.991-177.551h.01z"/><path d="m485.613 142.591c-1.535 0-2.999-.888-3.66-2.381-.894-2.02.017-4.381 2.036-5.276 1.861-.825 45.886-20.021 73.408-4.479 1.923 1.086 2.602 3.526 1.516 5.45-1.086 1.922-3.525 2.603-5.45 1.516-24.012-13.562-65.813 4.642-66.233 4.827-.526.232-1.075.343-1.616.343z"/><path d="m363.303 479.25c-1.717 0-3.305-1.115-3.828-2.844l-15.61-51.641c-.639-2.114.557-4.347 2.672-4.986 2.113-.637 4.347.557 4.986 2.672l15.61 51.641c.639 2.114-.557 4.347-2.672 4.986-.386.116-.775.172-1.159.172z"/><path d="m256.111 243.446c-1.033 0-2.065-.397-2.848-1.191-1.551-1.573-1.534-4.105.039-5.657.435-.429 10.816-10.501 25.527-10.501 2.209 0 4 1.791 4 4s-1.791 4-4 4c-11.466 0-19.826 8.115-19.909 8.197-.779.769-1.794 1.152-2.809 1.152z"/><path d="m354.866 241.107c-.603 0-1.215-.137-1.79-.425-.13-.065-13.275-6.585-22.856-6.585-2.209 0-4-1.791-4-4s1.791-4 4-4c11.487 0 25.837 7.13 26.442 7.434 1.975.99 2.773 3.394 1.783 5.369-.702 1.399-2.113 2.208-3.579 2.208z"/><path d="m346.99 283.563c-.573 0-1.155-.083-1.732-.256-3.357-1.007-13.5-3.563-19.957-3.275-3.317.147-6.113-2.418-6.26-5.729s2.418-6.113 5.729-6.26c9.834-.443 23.376 3.601 23.948 3.773 3.173.955 4.971 4.302 4.015 7.475-.782 2.596-3.165 4.271-5.743 4.271z"/><path d="m256.107 280.491c-2.658 0-5.087-1.779-5.797-4.47-.846-3.204 1.065-6.487 4.27-7.333.43-.113 10.646-2.78 20.523-2.723 3.313.018 5.985 2.719 5.967 6.033-.018 3.302-2.701 5.967-6 5.967-.089 0-.182 0-.272 0-8.248 0-17.066 2.303-17.155 2.327-.513.135-1.029.2-1.536.2z"/><path d="m296.852 377.497c-1.232 0-2.447-.567-3.23-1.637-1.305-1.782-.919-4.285.863-5.591 2.853-2.106 7.357-6.726 7.475-10.271-.874-2.539-9.787-9.752-17.721-11.817-2.138-.557-3.42-2.741-2.863-4.879s2.745-3.419 4.879-2.863c9.336 2.431 23.672 12.071 23.708 19.36.042 8.767-9.645 16.116-10.75 16.925-.712.521-1.541.773-2.36.773z"/><path d="m501.727 291.213c-.231 0-.466-.02-.702-.062-2.175-.385-3.626-2.46-3.242-4.636 3.2-18.081 3.992-38.441 4.093-52.337.438-60.266-42.101-81.57-60.41-87.932-2.086-.725-3.19-3.004-2.465-5.091.725-2.086 3.004-3.193 5.091-2.465 12.498 4.342 30.386 13.194 44.633 30.703 14.221 17.475 21.337 39.292 21.151 64.843-.104 14.204-.918 35.045-4.215 53.674-.343 1.939-2.031 3.303-3.934 3.303z" fill="#fff"/><path d="m329.342 178.336c-.541 0-1.089-.11-1.615-.343-2.019-.893-2.933-3.25-2.042-5.271.314-.711 7.833-17.496 20.752-24.213 1.96-1.019 4.375-.256 5.394 1.704s.256 4.375-1.704 5.394c-10.403 5.409-17.059 20.2-17.125 20.349-.662 1.492-2.126 2.38-3.66 2.38z" fill="#fff"/><path d="m515.91 642.062-53.162 242.769s-39.154-90.523-41.089-115.525c-2.555-33.022 18.508-72.432 46.172-103.506 14.619-16.42 43.442-30.587 48.079-23.737z"/><path d="m462.747 888.83c-1.582 0-3.032-.938-3.67-2.412-1.609-3.721-39.442-91.427-41.406-116.805-2.384-30.815 15.251-70.618 47.173-106.474 12.713-14.28 36.288-27.541 47.538-26.812 3.875.257 5.859 2.041 6.841 3.492.614.908.829 2.027.595 3.098l-53.162 242.769c-.371 1.696-1.794 2.959-3.522 3.126-.129.013-.258.019-.386.019zm48.534-244.629c-6.477 0-27.25 9.418-40.462 24.258-30.504 34.264-47.391 71.848-45.171 100.538 1.457 18.825 25.367 77.607 35.881 102.707l49.818-227.502h-.065zm1.499.29h.01z"/><path d="m223.254 659.549c-8.343-.47-18.947-2.26-13.642 22.924s50.779 196.295 50.779 196.295 59.116-145.516 63.663-166.737-16.805-47.747-100.8-52.482z"/><path d="m260.392 882.767c-.084 0-.168-.002-.253-.008-1.717-.108-3.172-1.302-3.614-2.965-1.858-6.991-45.561-171.499-50.828-196.498-2.5-11.866-1.896-19.437 1.9-23.829 4.021-4.652 10.257-4.262 14.808-3.979l1.073.065c63.779 3.595 88.734 19.512 98.438 32.231 5.834 7.648 7.926 16.321 6.048 25.082-4.568 21.319-61.449 161.45-63.868 167.404-.616 1.515-2.086 2.495-3.705 2.495zm-41.847-219.436c-2.11 0-3.95.275-4.895 1.368-1.109 1.284-2.601 5.192-.125 16.948 4.419 20.976 37.342 145.571 47.655 184.496 13.872-34.394 55.267-137.709 58.962-154.951 1.392-6.497-.151-12.74-4.586-18.554-7.11-9.32-28.585-25.493-92.528-29.097l-1.122-.068c-1.135-.071-2.284-.143-3.362-.143z"/><path d="m142.914 767.447c-.624 0-1.256-.146-1.848-.455-1.958-1.022-2.717-3.439-1.695-5.397l46.231-88.552c1.022-1.958 3.438-2.717 5.397-1.695 1.958 1.022 2.717 3.439 1.695 5.397l-46.231 88.552c-.714 1.367-2.107 2.15-3.549 2.15z"/><path d="m166.037 707.695c-.272 0-.548-.028-.825-.086-2.162-.453-3.547-2.574-3.094-4.736 4.045-19.282 39.682-188.699 45.42-199.499 3.625-6.821 17.15-11.013 41.705-18.624 21.712-6.729 51.448-15.946 86.096-30.848 2.029-.874 4.382.064 5.255 2.094.873 2.029-.064 4.382-2.094 5.255-35.037 15.07-65.006 24.358-86.888 31.141-18.744 5.81-34.932 10.827-37.009 14.736-3.941 7.417-28.864 122.107-44.655 197.388-.396 1.885-2.059 3.18-3.911 3.18z"/><path d="m546.189 644.915c-1.51 0-2.956-.859-3.632-2.32-.928-2.004-.056-4.381 1.948-5.31.597-.277 14.815-6.834 30.792-11.722 23.097-7.065 37.36-6.894 43.605.522 1.423 1.69 1.207 4.213-.483 5.636s-4.213 1.207-5.636-.483c-7.001-8.313-42.176 2.776-64.917 13.305-.544.251-1.116.371-1.678.371z"/><path d="m615.839 720.578c-2.084 0-3.841-1.614-3.987-3.725-1.077-15.622-35.832-27.577-49.133-30.865-2.144-.53-3.454-2.698-2.924-4.842s2.696-3.453 4.841-2.925c5.474 1.351 53.528 13.891 55.197 38.081.152 2.204-1.512 4.114-3.715 4.266-.094.006-.187.009-.279.009z"/><path d="m671.925 797.883c-2.145 0-3.92-1.701-3.995-3.861l-3.79-109.137c-.077-2.208 1.651-4.06 3.859-4.136 2.195-.067 4.06 1.651 4.136 3.859l3.79 109.137c.077 2.208-1.651 4.06-3.859 4.136-.047.001-.094.002-.141.002z"/><path d="m724.218 778.937c-1.865 0-3.534-1.312-3.917-3.211-1.641-8.145-40.235-199.781-43.251-225.417-1.417-12.046-33.101-28.491-69.788-47.533-31.941-16.579-71.466-37.094-108.633-63.152l-113.857 167.039c-1.244 1.826-3.733 2.297-5.558 1.052-1.825-1.244-2.296-3.733-1.052-5.558l116.149-170.401c.605-.889 1.544-1.496 2.603-1.685 1.059-.188 2.149.057 3.025.681 37.667 26.856 78.333 47.963 111.01 64.923 43.438 22.546 72.135 37.441 74.047 53.699 2.978 25.313 42.748 222.78 43.149 224.772.436 2.166-.966 4.275-3.131 4.711-.267.054-.532.08-.794.08z"/><path d="m461.109 431.929c-1.227 0-2.46-.408-3.483-1.246-2.349-1.925-2.693-5.389-.769-7.739 4.086-4.989 18.209-21.369 28.37-22.685 3.009-.386 5.771 1.736 6.161 4.748.39 3.013-1.736 5.771-4.748 6.161-3.95.511-14.188 10.106-21.274 18.748-1.087 1.326-2.666 2.013-4.257 2.013z"/><path d="m515.293 674.894-81.792-193.263s36.826-65.179 36.826-78.821 15.419-78.704 27.288-87.158c0 0-6-17.378-19.044 2.553s-26.181 67.931-31.739 71.721-13.26-93.221-13.26-93.221-44.846 33.824-42.825 47.747c0 0 9.095 63.663 11.368 71.242s-26.526 53.811-8.337 93.221c12.456 26.987 77.41 266.021 91.2 277.283l30.313-111.304z" fill="#fff"/><path d="m479.419 782.725c-.865 0-1.736-.279-2.469-.855-2.424-1.904-6.233-7.847-20.841-54.542-9.172-29.317-20.115-66.685-30.699-102.822-15.46-52.788-30.063-102.648-35.263-113.915-13.741-29.773-2.349-62.227 4.458-81.618 1.752-4.992 3.736-10.641 3.641-12.259-2.345-8.141-10.529-65.187-11.459-71.698-.313-2.187 1.208-4.213 3.394-4.525 2.191-.311 4.213 1.208 4.526 3.395 2.518 17.625 9.445 64.677 11.24 70.658.974 3.246-.459 7.582-3.793 17.079-6.405 18.247-17.126 48.786-4.743 75.615 5.448 11.803 19.456 59.635 35.676 115.019 18.126 61.894 42.938 146.612 48.924 153.42 1.631 1.384 1.888 3.823.555 5.519-.789 1.004-1.962 1.529-3.147 1.529zm2.474-7.146c.021.017.043.034.064.052-.022-.019-.043-.036-.064-.052zm-83.616-358.763c.003.009.005.018.008.026-.003-.009-.005-.018-.008-.026z"/><path d="m426.371 399.99c-1.607 0-3.123-.975-3.734-2.565-3.896-10.13-16.241-73.977-14.636-86.816.274-2.192 2.275-3.748 4.465-3.473 2.192.274 3.747 2.273 3.473 4.465-1.344 10.751 10.278 72.847 14.165 82.952.793 2.062-.235 4.376-2.297 5.169-.472.182-.958.268-1.435.268z"/><path d="m446.828 393.926c-1.92 0-3.615-1.386-3.941-3.343l-.222-1.331c-9.448-56.552-13.837-87.89-13.047-93.143.329-2.185 2.363-3.688 4.551-3.36 2.184.329 3.689 2.366 3.36 4.55-.465 3.339 2.713 28.901 13.027 90.635l.223 1.333c.363 2.179-1.109 4.24-3.288 4.604-.223.037-.444.055-.663.055z"/><path d="m508.88 663.737c-1.559 0-3.04-.917-3.686-2.442l-75.376-178.105c-.484-1.143-.41-2.446.201-3.527 14.038-24.847 36.308-67.683 36.308-76.854 0-7.462 4.104-27.934 9.342-46.605 6.941-24.739 13.544-39.479 19.626-43.811 1.799-1.281 4.296-.861 5.579.938 1.281 1.799.861 4.297-.938 5.579-9.731 6.93-25.608 68.957-25.608 83.899 0 13.444-29.704 67.171-36.376 79.071l74.611 176.296c.861 2.035-.09 4.382-2.125 5.243-.509.215-1.038.317-1.557.317z"/><path d="m462.748 884.831 53.162-242.769 51.428 69.969s-15.916 134.905-38.653 180.379z" fill="#fff"/><path d="m528.687 896.409c-.152 0-.305-.008-.458-.026l-65.937-7.579c-1.124-.129-2.141-.728-2.798-1.648-.658-.92-.895-2.076-.653-3.181l53.162-242.769c.336-1.535 1.54-2.731 3.077-3.057 1.536-.329 3.123.277 4.054 1.543l51.428 69.969c.6.817.868 1.831.75 2.838-.653 5.537-16.26 136.124-39.048 181.699-.683 1.366-2.075 2.211-3.576 2.211zm-61.083-15.047 58.709 6.749c20.249-43.846 35.036-160.127 36.863-174.988l-45.25-61.564-50.322 229.804z"/><path d="m215.233 705.83s35.304-203.736 38.336-221.168-69.726-37.895-68.968-42.701-21.221-69.468-27.284-77.047c0 0 8.716-8.084 18.189 8.589 7.976 14.037 18.189 48 25.011 48s5.834-86.147 5.834-102.063 26.297-1.115 26.119 12.755-3.097 63.792-9.216 78.192c20.097 8.716 30.408 17.432 30.408 17.432s46.897 22.737 47.655 40.168-2.56 218.345-3.789 228.884c-5.305 45.474-46.282 92.38-59.558 96.928l-22.736-87.97z" fill="#fff"/><path d="m200.516 419.695c-.478 0-.963-.086-1.435-.268-2.062-.793-3.09-3.107-2.297-5.169 3.451-8.971 7.326-87.458 4.822-97.652-.527-2.145.785-4.312 2.93-4.838 2.146-.53 4.312.785 4.838 2.93 2.872 11.689-1.151 92.103-5.124 102.432-.611 1.589-2.127 2.565-3.734 2.565z"/><path d="m223.249 414.389c-.673 0-1.354-.17-1.981-.527-1.918-1.096-2.584-3.54-1.488-5.458 5.537-9.688 10.634-68.837 7.93-79.655-.536-2.143.767-4.315 2.91-4.851 2.146-.536 4.315.768 4.851 2.91 3.22 12.878-2.144 74.015-8.744 85.565-.739 1.292-2.088 2.016-3.477 2.016z"/><path d="m237.97 797.8c-.655 0-1.308-.161-1.896-.478-.981-.528-1.697-1.442-1.976-2.521l-22.736-87.97c-.143-.55-.166-1.124-.069-1.684 0 0 35.305-203.738 38.336-221.17.194-1.113-.263-5.363-14.264-13.319-9.84-5.592-22.737-10.954-33.1-15.262-17.324-7.202-22.198-9.229-21.648-13.814-.385-6.777-21.25-67.703-26.423-74.167-1.38-1.725-1.1-4.242.625-5.623 1.726-1.379 4.243-1.1 5.623.625 4.292 5.365 13.217 30.284 16.854 40.749 3.97 11.419 10.24 30.17 11.18 37.271 2.488 1.598 10.083 4.755 16.861 7.573 31 12.888 54.526 23.82 52.175 37.339-2.917 16.774-35.718 206.061-38.188 220.316l21.244 82.197c14.635-10.234 48.306-51.318 52.988-91.451 1.212-10.386 4.521-210.902 3.767-228.247-.477-10.962-28.103-28.355-45.404-36.743-1.988-.963-2.818-3.356-1.854-5.344.963-1.987 3.354-2.82 5.344-1.854 5.02 2.434 49.069 24.334 49.906 43.594.757 17.423-2.592 219.058-3.813 229.521-5.44 46.632-46.969 95.019-62.234 100.248-.422.145-.86.216-1.296.216zm-49.376-355.899c.002.263-.011.492-.042.684.038-.241.049-.469.042-.684zm-7.944-.563c-.005.034-.011.071-.017.112.005-.037.011-.074.017-.112z"/><path d="m429.717 729.346c-1.538 0-3.004-.892-3.664-2.391-3.155-7.172-77.397-176.109-88.414-214.667-8.332-29.163-11.394-45.774-5.001-55.633 4.689-7.232 13.521-9.399 22.365-10.664 2.186-.312 4.213 1.207 4.526 3.394s-1.207 4.213-3.394 4.526c-9.412 1.345-14.432 3.468-16.785 7.097-4.649 7.17-1.158 24.096 5.981 49.083 10.867 38.037 87.274 211.893 88.045 213.645.889 2.022-.029 4.382-2.051 5.272-.524.23-1.07.339-1.608.339z"/></g><path d="m427.758 855.516c-57.745 0-113.765-11.311-166.504-33.617-50.938-21.544-96.684-52.387-135.967-91.67s-70.125-85.029-91.67-135.966c-22.306-52.74-33.617-108.76-33.617-166.505s11.311-113.765 33.617-166.504c21.544-50.938 52.387-96.684 91.67-135.967s85.029-70.126 135.967-91.67c52.739-22.307 108.759-33.617 166.504-33.617s113.765 11.311 166.504 33.617c50.938 21.544 96.684 52.387 135.967 91.67s70.125 85.029 91.67 135.967c22.307 52.739 33.617 108.759 33.617 166.504s-11.311 113.765-33.617 166.504c-21.544 50.938-52.387 96.683-91.67 135.966s-85.029 70.126-135.967 91.67c-52.739 22.307-108.759 33.617-166.504 33.617zm0-847.516c-231.455 0-419.758 188.303-419.758 419.758s188.303 419.758 419.758 419.758 419.758-188.303 419.758-419.758-188.303-419.758-419.758-419.758z"/></svg>