<svg enable-background="new 0 0 159.863 131.164" height="132" viewBox="0 0 159.863 131.164" width="160" xmlns="http://www.w3.org/2000/svg"><path d="m158.408 29.077-6.946 13.59-6.948 13.594-6.95 13.598-6.949 13.595-6.952 13.603-6.953 13.604-3.407 5.388-4.331 4.677-5.111 3.809-5.718 2.816-6.136 1.728-6.348.581h-9.54-9.541-9.546-9.542-9.549-9.548l-5.294-.891-4.679-2.629-3.527-4.046-1.995-4.983-.209-5.362 1.615-5.12 7.776-15.213 7.775-15.21 7.777-15.214 7.777-15.215 7.779-15.218 7.778-15.217.939-1.491 1.196-1.294 1.412-1.053 1.58-.778 1.696-.478 1.755-.16h14.005 14.002 14.006 14.002 14.012 14.012l.108.363.109.363.107.359.11.367.11.368.11.367.694 2.796.695 2.799.694 2.799.695 2.799.697 2.805z" fill="#231f20"/><path d="m85.659 131.16-57.515-.021-5.294-.891-.486-.171-4.679-2.628-.396-.322-3.527-4.047-.262-.428-1.995-4.983-.106-.499-.209-5.362.068-.51 1.71-5.351 46.728-91.404 1.107-1.71 1.4-1.478 1.646-1.197 1.837-.876 1.966-.527 1.891-.167h84.039l1.437 1.07.654 2.187 4.19 16.87-.12 1.044-41.766 81.703-3.574 5.605-4.536 4.861-5.344 3.953-5.975 2.914-6.406 1.777zm-57.141-3h57.072l6.143-.562 5.871-1.653 5.471-2.694 4.89-3.645 4.144-4.475 3.296-5.214 41.411-81.023-4.351-17.306h-82.853l-1.549.142-1.43.402-1.333.656-1.191.888-1.008 1.09-.829 1.317-46.575 91.117-1.499 4.751.189 4.842 1.804 4.506 3.19 3.66 4.225 2.373z" fill="#231f20"/><path d="m150.848 10.09h-15.415-15.41-15.416-15.417-15.419-15.419l-1.754.161-1.695.477-1.579.778-1.411 1.052-1.196 1.292-.941 1.488-7.777 15.215-7.774 15.21-7.777 15.216-7.777 15.216-7.778 15.218-7.779 15.219-1.615 5.119.211 5.364 1.998 4.982 3.527 4.046 4.679 2.629 5.294.892h9.539 9.542 9.545 9.541 9.549 9.548l6.349-.582 6.135-1.729 5.719-2.817 5.11-3.81 4.332-4.676 3.407-5.388 8.106-15.859 8.103-15.854 8.106-15.86 8.107-15.86 8.107-15.863 8.108-15.863.38-1.203-.05-1.261-.47-1.171-.829-.951-1.099-.617z" fill="#fff"/><g fill="#231f20"><path d="m74.472 131.163-57.513-.021-5.294-.892-.485-.171-4.679-2.628-.396-.322-3.528-4.046-.262-.428-1.997-4.983-.106-.499-.212-5.363.068-.51 1.71-5.351 46.729-91.413 1.108-1.706 1.4-1.475 1.645-1.195 1.835-.876 1.965-.527 1.891-.167 92.746.021 1.245.209.486.171 1.1.618.396.322.829.951.262.428.469 1.171.106.499.05 1.26-.068.51-.475 1.435-48.704 95.278-3.574 5.605-4.536 4.86-5.344 3.953-5.974 2.915-6.406 1.779zm-57.138-3h57.07l6.143-.562 5.871-1.654 5.471-2.695 4.89-3.645 4.144-4.475 3.297-5.213 48.548-94.986.263-.835-.029-.74-.279-.695-.492-.563-.646-.363-.863-.146h-92.302l-1.548.142-1.429.403-1.332.656-1.191.888-1.009 1.09-.831 1.313-46.573 91.12-1.499 4.751.191 4.843 1.806 4.507 3.19 3.659 4.225 2.374z"/><path d="m68.46 20.181-.312-.009-2.226-.29-.38-.102-2.075-.859-.339-.196-1.781-1.368-.276-.276-1.368-1.78-.196-.34-.859-2.074-.101-.38-.291-2.227v-.388l.291-2.227.101-.38.86-2.074.196-.34 1.367-1.78.276-.276 1.781-1.368.34-.196 2.074-.859.38-.102 2.226-.29h.389l2.226.29.38.102 2.075.859.34.197 1.78 1.367.276.276 1.368 1.781.196.34.859 2.074.101.38.291 2.226-2.975.388-.265-2.03-.707-1.708-1.127-1.467-1.468-1.128-1.708-.707-1.837-.24-1.835.24-1.709.707-1.467 1.127-1.127 1.468-.708 1.708-.24 1.836.24 1.836.707 1.708 1.127 1.468 1.468 1.127 1.708.707 1.875.245 1.09-.085 1.096-.266 1.04-.437.957-.599.851-.742.8-.96 2.305 1.919-1.042 1.223-1.223 1.042-1.374.835-1.49.606-1.566.36z"/><path d="m100.76 20.181h-.235l-1.603-.146-1.559-.398-1.475-.642-1.353-.866-1.199-1.069-1.001-1.218-.539-.877-.449-.929-.354-.97-.253-1.002-.149-1.023-.045-.879.011-.27.29-2.227.102-.38.859-2.074.196-.34 1.368-1.78.276-.276 1.78-1.368.34-.196 2.074-.859.38-.102 2.227-.29h.388l2.227.29.38.102 2.074.859.34.197 1.78 1.367.276.276 1.368 1.781.196.34.859 2.074.102.38.29 2.226-2.975.388-.265-2.03-.707-1.708-1.127-1.467-1.468-1.128-1.708-.707-1.836-.24-1.836.24-1.708.707-1.468 1.127-1.127 1.468-.708 1.708-.247 1.896.034.667.11.719.184.703.254.682.322.653.371.594.737.88.854.744.959.599 1.042.438 1.097.267 1.13.089 1.129-.089 1.098-.267 1.041-.438.959-.599.855-.743.803-.96 2.301 1.925-1.045 1.219-1.225 1.041-1.374.836-1.49.606-1.568.361z"/><path d="m133.061 20.181h-.235l-1.601-.145-1.56-.398-1.474-.642-1.352-.867-1.198-1.07-.991-1.211-.545-.877-.453-.93-.357-.972-.254-1.002-.15-1.024-.045-.881.011-.27.29-2.227.102-.38.859-2.074.196-.34 1.368-1.78.276-.276 1.781-1.368.339-.196 2.075-.859.379-.102 2.227-.29h.388l2.227.29.38.102 2.075.859.339.197 1.781 1.367.276.276 1.367 1.781.196.34.859 2.074.102.38.29 2.226-2.974.388-.265-2.03-.708-1.708-1.127-1.467-1.467-1.128-1.709-.707-1.836-.24-1.836.24-1.708.707-1.468 1.127-1.127 1.468-.707 1.708-.248 1.896.034.668.111.719.184.702.255.68.325.651.376.597.736.884.851.743.958.598 1.039.438 1.097.266 1.128.089 1.128-.089 1.097-.266 1.039-.437.958-.599.851-.742.799-.96 2.306 1.919-1.043 1.223-1.223 1.042-1.373.835-1.49.606-1.566.36z"/><path d="m50.84 37.819h76.404v3h-76.404z"/><path d="m26.641 89.48h76.404v3h-76.404z"/><path d="m39.421 62.834h44.32v3h-44.32z"/></g></svg>